REM DIRINDEX 1\2,1\3\7,1\3\8,1\4\9,1\4\10,1\4\11,1\5\12,1\5\13,1\5\14,1\6\15,1\6\16,1\6\17
REM DIRNAME "folder01","folder02","folder03","folder04","folder05","folder06","folder07","folder08","folder09","folder10","folder11","folder12","folder13","folder14","folder15","folder16","folder17"
TITLE ""
FILE "2Q_j_1328-1341.mp3" MP3
  TRACK 01 AUDIO
    TITLE "0:"
    INDEX 01 00:00:00
  TRACK 02 AUDIO
    TITLE "9:cjc174_0200"
    INDEX 01 00:00:10
  TRACK 03 AUDIO
    TITLE "0:"
    INDEX 01 00:01:55
  TRACK 04 AUDIO
    TITLE "10:cjc174_0201"
    INDEX 01 00:02:25
  TRACK 05 AUDIO
    TITLE "0:"
    INDEX 01 00:04:32
  TRACK 06 AUDIO
    TITLE "11:cjc174_0202"
    INDEX 01 00:05:02
  TRACK 07 AUDIO
    TITLE "0:"
    INDEX 01 00:07:65
  TRACK 08 AUDIO
    TITLE "9:cjc174_0203"
    INDEX 01 00:08:41
  TRACK 09 AUDIO
    TITLE "0:"
    INDEX 01 00:09:52
  TRACK 10 AUDIO
    TITLE "10:cjc174_0204"
    INDEX 01 00:10:24
  TRACK 11 AUDIO
    TITLE "0:"
    INDEX 01 00:12:06
  TRACK 12 AUDIO
    TITLE "11:cjc174_0205"
    INDEX 01 00:12:51
  TRACK 13 AUDIO
    TITLE "0:"
    INDEX 01 00:16:23
  TRACK 14 AUDIO
    TITLE "9:cjc174_0206"
    INDEX 01 00:16:70
  TRACK 15 AUDIO
    TITLE "0:"
    INDEX 01 00:18:30
  TRACK 16 AUDIO
    TITLE "10:cjc174_0207"
    INDEX 01 00:18:73
  TRACK 17 AUDIO
    TITLE "0:"
    INDEX 01 00:20:62
  TRACK 18 AUDIO
    TITLE "11:cjc174_0208"
    INDEX 01 00:21:32
  TRACK 19 AUDIO
    TITLE "0:"
    INDEX 01 00:24:19
  TRACK 20 AUDIO
    TITLE "9:cjc174_0209"
    INDEX 01 00:24:70
  TRACK 21 AUDIO
    TITLE "0:"
    INDEX 01 00:26:04
  TRACK 22 AUDIO
    TITLE "10:cjc174_0210"
    INDEX 01 00:26:49
  TRACK 23 AUDIO
    TITLE "0:"
    INDEX 01 00:29:73
  TRACK 24 AUDIO
    TITLE "11:cjc174_0211"
    INDEX 01 00:30:43
  TRACK 25 AUDIO
    TITLE "0:"
    INDEX 01 00:34:39
  TRACK 26 AUDIO
    TITLE "9:cjc174_0212"
    INDEX 01 00:35:11
  TRACK 27 AUDIO
    TITLE "0:"
    INDEX 01 00:37:09
  TRACK 28 AUDIO
    TITLE "10:cjc174_0213"
    INDEX 01 00:37:57
  TRACK 29 AUDIO
    TITLE "0:"
    INDEX 01 00:39:46
  TRACK 30 AUDIO
    TITLE "11:cjc174_0214"
    INDEX 01 00:40:16
  TRACK 31 AUDIO
    TITLE "0:"
    INDEX 01 00:46:32
  TRACK 32 AUDIO
    TITLE "9:cjc174_0215"
    INDEX 01 00:47:02
  TRACK 33 AUDIO
    TITLE "0:"
    INDEX 01 00:48:56
  TRACK 34 AUDIO
    TITLE "10:cjc174_0216"
    INDEX 01 00:49:26
  TRACK 35 AUDIO
    TITLE "0:"
    INDEX 01 00:51:10
  TRACK 36 AUDIO
    TITLE "11:cjc174_0217"
    INDEX 01 00:51:55
  TRACK 37 AUDIO
    TITLE "0:"
    INDEX 01 00:56:32
  TRACK 38 AUDIO
    TITLE "9:cjc174_0218"
    INDEX 01 00:57:02
  TRACK 39 AUDIO
    TITLE "0:"
    INDEX 01 00:58:23
  TRACK 40 AUDIO
    TITLE "10:cjc174_0219"
    INDEX 01 00:58:72
  TRACK 41 AUDIO
    TITLE "0:"
    INDEX 01 01:02:33
  TRACK 42 AUDIO
    TITLE "11:cjc174_0220"
    INDEX 01 01:03:03
  TRACK 43 AUDIO
    TITLE "0:"
    INDEX 01 01:06:74
  TRACK 44 AUDIO
    TITLE "9:cjc174_0221"
    INDEX 01 01:07:50
  TRACK 45 AUDIO
    TITLE "0:"
    INDEX 01 01:08:73
  TRACK 46 AUDIO
    TITLE "10:cjc174_0222"
    INDEX 01 01:09:45
  TRACK 47 AUDIO
    TITLE "0:"
    INDEX 01 01:13:05
  TRACK 48 AUDIO
    TITLE "11:cjc174_0223"
    INDEX 01 01:13:50
  TRACK 49 AUDIO
    TITLE "0:"
    INDEX 01 01:16:72
  TRACK 50 AUDIO
    TITLE "9:cjc174_0224"
    INDEX 01 01:17:46
  TRACK 51 AUDIO
    TITLE "0:"
    INDEX 01 01:19:10
  TRACK 52 AUDIO
    TITLE "10:cjc174_0225"
    INDEX 01 01:19:57
  TRACK 53 AUDIO
    TITLE "0:"
    INDEX 01 01:21:44
  TRACK 54 AUDIO
    TITLE "11:cjc174_0226"
    INDEX 01 01:22:14
  TRACK 55 AUDIO
    TITLE "0:"
    INDEX 01 01:25:54
  TRACK 56 AUDIO
    TITLE "9:cjc174_0227"
    INDEX 01 01:26:24
  TRACK 57 AUDIO
    TITLE "0:"
    INDEX 01 01:27:52
  TRACK 58 AUDIO
    TITLE "10:cjc174_0228"
    INDEX 01 01:28:23
  TRACK 59 AUDIO
    TITLE "0:"
    INDEX 01 01:31:09
  TRACK 60 AUDIO
    TITLE "11:cjc174_0229"
    INDEX 01 01:31:52
  TRACK 61 AUDIO
    TITLE "0:"
    INDEX 01 01:36:46
  TRACK 62 AUDIO
    TITLE "9:cjc174_0230"
    INDEX 01 01:37:18
  TRACK 63 AUDIO
    TITLE "0:"
    INDEX 01 01:38:44
  TRACK 64 AUDIO
    TITLE "10:cjc174_0231"
    INDEX 01 01:39:15
  TRACK 65 AUDIO
    TITLE "0:"
    INDEX 01 01:41:11
  TRACK 66 AUDIO
    TITLE "11:cjc174_0232"
    INDEX 01 01:41:57
  TRACK 67 AUDIO
    TITLE "0:"
    INDEX 01 01:47:18
  TRACK 68 AUDIO
    TITLE "9:cjc174_0233"
    INDEX 01 01:47:63
  TRACK 69 AUDIO
    TITLE "0:"
    INDEX 01 01:50:08
  TRACK 70 AUDIO
    TITLE "10:cjc174_0234"
    INDEX 01 01:50:61
  TRACK 71 AUDIO
    TITLE "0:"
    INDEX 01 01:53:19
  TRACK 72 AUDIO
    TITLE "11:cjc174_0235"
    INDEX 01 01:53:62
  TRACK 73 AUDIO
    TITLE "0:"
    INDEX 01 01:58:33
  TRACK 74 AUDIO
    TITLE "9:cjc174_0236"
    INDEX 01 01:59:05
  TRACK 75 AUDIO
    TITLE "0:"
    INDEX 01 02:00:32
  TRACK 76 AUDIO
    TITLE "10:cjc174_0237"
    INDEX 01 02:01:02
  TRACK 77 AUDIO
    TITLE "0:"
    INDEX 01 02:02:19
  TRACK 78 AUDIO
    TITLE "11:cjc174_0238"
    INDEX 01 02:02:66
  TRACK 79 AUDIO
    TITLE "0:"
    INDEX 01 02:07:01
  TRACK 80 AUDIO
    TITLE "9:cjc174_0239"
    INDEX 01 02:07:50
  TRACK 81 AUDIO
    TITLE "0:"
    INDEX 01 02:09:63
  TRACK 82 AUDIO
    TITLE "10:cjc174_0240"
    INDEX 01 02:10:37
  TRACK 83 AUDIO
    TITLE "0:"
    INDEX 01 02:12:67
  TRACK 84 AUDIO
    TITLE "11:cjc174_0241"
    INDEX 01 02:13:39
  TRACK 85 AUDIO
    TITLE "0:"
    INDEX 01 02:18:60
